<svg
  xmlns="http://www.w3.org/2000/svg"
  width="128"
  height="128"
  viewBox="0 0 128 128"
  role="img"
  aria-labelledby="title desc"
>
  <title id="title">Teichos shield</title>
  <desc id="desc">A tall rounded shield with a light rim, Teichos indigo gradient fill, and a soft top sheen.</desc>
  <defs>
    <linearGradient id="rim" x1="34" y1="12" x2="94" y2="118" gradientUnits="userSpaceOnUse">
      <stop offset="0" stop-color="#e2e9fd" />
      <stop offset="1" stop-color="#95bef2" />
    </linearGradient>
    <linearGradient id="shield" x1="42" y1="20" x2="88" y2="112" gradientUnits="userSpaceOnUse">
      <stop offset="0" stop-color="#98b1ee" />
      <stop offset="0.45" stop-color="#666ddc" />
      <stop offset="1" stop-color="#4743c9" />
    </linearGradient>
    <linearGradient id="sheen" x1="64" y1="14" x2="64" y2="76" gradientUnits="userSpaceOnUse">
      <stop offset="0" stop-color="#ffffff" stop-opacity="0.32" />
      <stop offset="1" stop-color="#ffffff" stop-opacity="0" />
    </linearGradient>
    <path
      id="hull"
      d="M64 10.5c1.2 0 2.4.2 3.5.6 9.9 3.4 21.6 7.4 35 12.1a9.6 9.6 0 0 1 6.4 9v20.6c0 28.5-15.5 49.5-42.5 62.4a5.6 5.6 0 0 1-4.8 0c-27-12.9-42.5-33.9-42.5-62.4V32.2a9.6 9.6 0 0 1 6.4-9c13.4-4.7 25.1-8.7 35-12.1 1.1-.4 2.3-.6 3.5-.6Z"
    />
  </defs>
  <use href="#hull" fill="url(#rim)" />
  <use href="#hull" fill="url(#shield)" transform="translate(10.24 10.16) scale(0.84)" />
  <use href="#hull" fill="url(#sheen)" transform="translate(10.24 10.16) scale(0.84)" />
</svg>
